Coordinates
version=1
nRows=22
nColumns=24
inDegrees=yes

Units are S.I. units (second, meters, Newtons, ...)
Angles are in degrees.

endheader
time	pelvis_tilt	pelvis_list	pelvis_rotation	pelvis_tx	pelvis_ty	pelvis_tz	hip_flexion_r	hip_adduction_r	hip_rotation_r	knee_angle_r	ankle_angle_r	subtalar_angle_r	mtp_angle_r	hip_flexion_l	hip_adduction_l	hip_rotation_l	knee_angle_l	ankle_angle_l	subtalar_angle_l	mtp_angle_l	lumbar_extension	lumbar_bending	lumbar_rotation
      0.48000000	     -3.15666774	      3.39174320	      0.58277252	     -0.85403496	      0.99929150	      0.30687937	     24.86078516	     -2.84537142	     -6.97281450	      1.24306054	      1.75913715	    -11.34138400	     -4.25832263	     -6.87223621	      4.27849995	     -8.21532133	     -8.05423484	     10.06950687	     -7.88006932	     -0.36133202	     -9.29635410	     -3.90725273	      0.17588241
      0.48416667	     -2.90203985	      3.29780769	      0.82622321	     -0.84827905	      0.99907747	      0.30641517	     24.63800091	     -2.87867738	     -7.25521404	      0.79533651	      1.73624047	    -10.97171402	     -4.86981137	     -7.30752665	      4.14200531	     -7.76809710	     -8.44224422	     10.17544731	     -8.18868138	     -0.39655946	     -9.60394681	     -3.66918044	     -0.13134307
      0.48833333	     -2.62460300	      3.17223665	      0.74394486	     -0.84235304	      0.99876692	      0.30693142	     24.40221193	     -2.68599772	     -6.99695300	      0.35255700	      1.50960818	    -11.16126400	     -5.21476623	     -7.76026857	      3.93532929	     -7.94208735	     -8.89843357	     10.41436483	     -7.92787830	     -0.39891206	     -9.90085363	     -3.48403224	     -0.09838849
      0.49250000	     -2.34421057	      3.06630515	      0.71004882	     -0.83651520	      0.99851440	      0.30731973	     24.17425436	     -2.54122170	     -6.80472995	     -0.16317387	      1.30053023	    -11.26022751	     -5.44988209	     -8.18379243	      3.75151919	     -7.99920960	     -9.40285364	     10.56776286	     -7.79081155	     -0.37811967	    -10.22071852	     -3.31559646	     -0.02195530
      0.49666667	     -2.08403261	      2.94720693	      0.64691271	     -0.83059007	      0.99825900	      0.30776698	     23.97104676	     -2.36626688	     -6.61053606	     -0.72265023	      1.01100045	    -11.43197079	     -5.58656508	     -8.58495450	      3.55664325	     -8.07446194	     -9.91633734	     10.74586565	     -7.65722342	     -0.34039848	    -10.49821586	     -3.14125437	     -0.00102988
      0.50083333	     -1.80212577	      2.79858655	      0.55652074	     -0.82460054	      0.99807595	      0.30828857	     23.72075255	     -2.14483926	     -6.36934533	     -1.26638917	      0.64356941	    -11.62960219	     -5.68440071	     -8.99028741	      3.32505213	     -8.21167221	    -10.48088330	     10.87694110	     -7.51108717	     -0.27994440	    -10.79489337	     -2.92549808	      0.07150318
      0.50500000	     -1.52229971	      2.65159550	      0.45170415	     -0.81859044	      0.99792704	      0.30885678	     23.46917057	     -1.91533530	     -6.11195768	     -1.82714206	      0.22143445	    -11.86874092	     -5.73933482	     -9.36929647	      3.09259986	     -8.37404588	    -11.09020966	     10.97125349	     -7.36966586	     -0.19535018	    -11.08648087	     -2.71664463	      0.15250366
      0.50916667	     -1.26405112	      2.49900219	      0.32732141	     -0.81253773	      0.99778619	      0.30948763	     23.23179799	     -1.66825483	     -5.83300265	     -2.38903650	     -0.26162728	    -12.14565647	     -5.75657334	     -9.70653038	      2.85214080	     -8.56170701	    -11.74339831	     11.02364207	     -7.23283054	     -0.08929752	    -11.34806870	     -2.50402540	      0.24712817
      0.51333333	     -0.94545925	      2.30878931	      0.11782608	     -0.80639651	      0.99775463	      0.31029193	     22.90920348	     -1.34366563	     -5.46856605	     -2.92006689	     -0.79035816	    -12.40928375	     -5.73138952	    -10.10285956	      2.57377374	     -8.88297792	    -12.43106170	     11.02990836	     -7.04356213	      0.12139174	    -11.66776298	     -2.26132598	      0.41376145
      0.51750000	     -0.71232011	      2.15426898	     -0.06666082	     -0.80029940	      0.99764815	      0.31108728	     22.68597578	     -1.06265233	     -5.11239268	     -3.47723347	     -1.37545728	    -12.76079607	     -5.65723708	    -10.36163798	      2.32837369	     -9.15224987	    -13.19275262	     11.01174378	     -6.89356129	      0.41370102	    -11.89802599	     -2.06908369	      0.56440010
      0.52166667	     -0.50331281	      1.99097423	     -0.25070555	     -0.79418114	      0.99755275	      0.31189468	     22.47413017	     -0.77158417	     -4.75691773	     -4.01918715	     -2.01182063	    -13.15327323	     -5.55711558	    -10.56474811	      2.07010186	     -9.41651466	    -14.01903543	     10.94667969	     -6.77872196	      0.71719463	    -12.09702471	     -1.86573030	      0.70282966
      0.52583333	     -0.27429843	      1.82011582	     -0.46846430	     -0.78805295	      0.99752755	      0.31280208	     22.22376198	     -0.45572767	     -4.35152194	     -4.53176252	     -2.68414755	    -13.57779552	     -5.42851271	    -10.76153154	      1.79952238	     -9.73474596	    -14.90250336	     10.83077821	     -6.65801426	      1.07089370	    -12.32124236	     -1.66931638	      0.89577359
      0.53000000	     -0.13949666	      1.70258088	     -0.57771017	     -0.78203270	      0.99745637	      0.31344424	     22.08397319	     -0.24812634	     -4.09019648	     -5.07851755	     -3.35371806	    -13.99585976	     -5.36505116	    -10.78896803	      1.58233835	     -9.84971233	    -15.88342717	     10.64019180	     -6.70352892	      1.25625196	    -12.44998296	     -1.50382458	      1.03566961
      0.53416667	      0.07608015	      1.49865184	     -0.97937157	     -0.77577313	      0.99743310	      0.31478730	     21.84019733	      0.18244870	     -3.50413032	     -5.57806980	     -4.05743499	    -14.47010575	     -5.16369475	    -10.93916928	      1.27304983	    -10.46166186	    -16.88034446	     10.48431073	     -6.42993510	      1.82763501	    -12.64350943	     -1.31887128	      1.34843113
      0.53833333	     -0.47386040	      1.71998678	     -0.66479104	     -0.77080352	      0.99654219	      0.31458490	     22.59084366	     -0.14113230	     -3.60007516	     -6.37425607	     -4.66692909	    -14.64261283	     -5.04395661	     -9.88260080	      1.37913508	     -9.79192051	    -18.32631919	     10.15402067	     -7.09087046	      2.20444456	    -12.09883356	     -1.43870965	      0.98358888
      0.54250000	     -0.31786770	      1.58797218	     -0.85969203	     -0.76490524	      0.99660379	      0.31550011	     22.41474993	      0.12275160	     -3.24475523	     -6.88982462	     -5.32873352	    -15.12755336	     -4.82365214	     -9.80168407	      1.11876457	    -10.06421080	    -19.54448049	      9.85934773	     -7.04490968	      2.87593974	    -12.27245397	     -1.28836215	      1.11590404
      0.54666667	     -0.32573007	      1.45358875	     -1.15531592	     -0.75884255	      0.99642114	      0.31663152	     22.41897671	      0.43325514	     -2.80301509	     -7.42332604	     -5.96875188	    -15.57194803	     -4.43471360	     -9.53229400	      0.85496902	    -10.46914142	    -20.80989854	      9.43270003	     -7.08474927	      4.27091711	    -12.21496607	     -1.14895540	      1.40430023
      0.55083333	     -0.21911212	      1.30083442	     -1.23095713	     -0.75282933	      0.99659980	      0.31704647	     22.25199402	      0.62474070	     -2.72534441	     -7.90791059	     -6.54080917	    -15.72587640	     -4.41248790	     -9.32455761	      0.59296927	    -10.50175185	    -22.12853184	      8.94307197	     -7.44275848	      4.39350346	    -12.32431065	     -0.91050963	      1.49656342
      0.55500000	     -0.14833143	      1.13046466	     -1.40157175	     -0.74679621	      0.99670551	      0.31788082	     22.11047514	      0.90416224	     -2.47297986	     -8.36055348	     -7.16591454	    -16.22066468	     -4.35073739	     -9.03767465	      0.27046874	    -10.74673435	    -23.54853408	      8.42706578	     -7.54128928	      4.77157389	    -12.37954232	     -0.70509172	      1.63647301
      0.55916667	     -0.11428574	      0.93720683	     -1.66754589	     -0.74069300	      0.99675689	      0.31890428	     22.00458476	      1.24198071	     -2.14429757	     -8.81527305	     -7.71639060	    -16.59083393	     -4.29041058	     -8.69647518	     -0.07734358	    -11.10448633	    -25.01059190	      7.83455096	     -7.71198624	      5.24607064	    -12.38499317	     -0.49814328	      1.91162623
      0.56333333	     -0.05125401	      0.71149584	     -1.87860992	     -0.73451758	      0.99693928	      0.31968254	     21.84063430	      1.56034352	     -1.96838836	     -9.26399700	     -8.03133864	    -16.61067351	     -4.27276866	     -8.35379051	     -0.45608423	    -11.38641828	    -26.51841816	      7.17059000	     -8.02581218	      5.42119956	    -12.41200501	     -0.21663760	      2.02585130
      0.56750000	     -0.16396127	      0.54194318	     -2.44079999	     -0.72843608	      0.99664375	      0.32153778	     21.94025501	      2.02130692	     -1.31194465	     -9.80380439	     -8.48644733	    -17.06205524	     -4.19589768	     -7.81431662	     -0.83456788	    -12.16693649	    -28.12217348	      6.55575193	     -7.96908931	      6.89746444	    -12.23732118	     -0.12465623	      2.61190653
